<svg xmlns="http://www.w3.org/2000/svg" viewBox="0 0 537.16 445.76"><defs><style>.cls-1{fill:#37405d;}.cls-2{fill:#eba348;}</style></defs><g id="Calque_2" data-name="Calque 2"><g id="Calque_1-2" data-name="Calque 1"><path class="cls-1" d="M254.2,172,61.57,347.53H446.83Zm-1.38,148.73H220.09v-34.5h32.73Zm0-45.16H220.09V241h32.73Zm43.26,45.16H263.36v-34.5h32.72Zm-32.72-45.16V241h32.72v34.5Z"/><polygon class="cls-2" points="377.09 135.11 415.61 135.11 415.61 208.8 377.09 176.16 377.09 135.11"/><path class="cls-2" d="M169.65,0s-6.76,29.07,56.77,106.37c4.94-8.52,11.7-17.93,22.92-29.82Z"/><path class="cls-2" d="M365.79,188.39l-61.15-58.73c-10.33,9-21.47,20.55-33.57,27.15,14.45,15.31,25.44,26,44.58,43.84,0,0,15.65-6,27,4S492.27,347.53,492.27,347.53h39.21Z"/><path class="cls-1" d="M218.79,142.94c-4.2,15-65,64.69-65,64.69L1.55,347.53h34.7L185.8,199.73s34.59-35.6,51.26-41.21c8.18,1.29,18.15-2,28.39-7.63-13.35-14.15-24.84-27.22-34.73-39.25C222.76,125.38,220.93,135.25,218.79,142.94Z"/><path class="cls-1" d="M324.23,102.62,378.76,46.2,374,41.15,292.29,117.8l8,7.73C314.23,113.41,324.23,102.62,324.23,102.62Z"/><path class="cls-1" d="M285.65,111.36,367.7,34.41l-4.74-5-80.88,75.85L276,98.76,356.9,22.9l-5.26-5.62L270.75,93.14l-6.41-4.5,80.71-78.38-3.68-3.93s-15.59,9.87-65.52,54.06c-8.5,7.52-15.64,14.44-21.65,20.82l32,30.73Z"/><path class="cls-1" d="M292.29,117.8l-.32.3-5.77-6.16-32-30.73c-11.22,11.9-18.53,21.91-23.48,30.43,9.89,12,21.38,25.1,34.73,39.25,12.1-6.6,24.57-16.34,34.89-25.36Z"/><path class="cls-2" d="M55.81,433.28q0,2.75-3.35,4.37a14.1,14.1,0,0,1-5.78,1.21q-14.11,0-28.42-26.38-8.52,9.84-8.52,13.4,0,9.33,2.33,13.29l.31,2.84q-2.24,2.53-4.47,2.54c-2.23,0-4.1-1.78-5.63-5.33S0,423.14,0,401.63Q0,383.15,1.32,376q.81-4.26,4.67-4.26a10.59,10.59,0,0,1,5.48,1.93c2,1.29,3,2.67,3,4.16a2.12,2.12,0,0,1-.91,2l-1.63.91q-.7.82-1.62,14.11-.62,10.35-.81,15.83,27.29-37.46,34.29-37.45a6.67,6.67,0,0,1,2.54.61c.74.95,1.45,1.93,2.13,2.95A5.77,5.77,0,0,1,49.82,380a3.28,3.28,0,0,1-3.25,3.25,5.38,5.38,0,0,1-2.13-.61l-.3-.3q-2.43.3-9.89,9.23t-7.46,11.67q0,5.88,6.8,16.84,7.09,11.67,12.48,11.67a8.78,8.78,0,0,0,2.69-.86,8.66,8.66,0,0,1,3.29-.86Q55.82,430,55.81,433.28Z"/><path class="cls-2" d="M71.94,402.34a23.78,23.78,0,0,1-.81,5.17,23.77,23.77,0,0,0-.81,5.18v20.9a24.7,24.7,0,0,0,1.21,6.09c-1,1.55-2.15,2.33-3.38,2.33q-6.45,0-7.07-6.39-1-11.88-1-17.86a146.3,146.3,0,0,1,.81-16.85v-1q0-1.83,2.82-1.83a13.25,13.25,0,0,1,5,1Q71.95,400.2,71.94,402.34Zm.91-14.21a4.73,4.73,0,0,1-1.52,3.65,5.28,5.28,0,0,1-3.75,1.42,7.75,7.75,0,0,1-4.92-1.82,5.53,5.53,0,0,1-2.29-4.47A4.71,4.71,0,0,1,62,383.26a5.56,5.56,0,0,1,3.9-1.42,7.4,7.4,0,0,1,4.87,1.77A5.64,5.64,0,0,1,72.85,388.13Z"/><path class="cls-2" d="M98.22,405.08q0,2.73-8.32,3.85c-.14,1.49-.2,4.87-.2,10.15v6.69a42.32,42.32,0,0,0,.61,6,43.42,43.42,0,0,1,.6,5.89,3.65,3.65,0,0,1-1.62,2.89A5.25,5.25,0,0,1,86,441.81q-2.54,0-4.26-4.37A17.62,17.62,0,0,1,80.46,431V409.44c-3.11-.47-4.9-.78-5.38-.91-1.75-.55-2.63-1.32-2.63-2.34a2.39,2.39,0,0,1,.2-.91c1.76-2.5,3.72-3.76,5.88-3.76h.61a2.82,2.82,0,0,0,.61.11q2.13,0,2-5v-7.4a4.82,4.82,0,0,1-.51-1.93,3,3,0,0,1,1.56-2.39,5.31,5.31,0,0,1,3-1.06,5.61,5.61,0,0,1,4,2,6,6,0,0,1,1.91,4.21,15.72,15.72,0,0,1-.77,4.82,14.31,14.31,0,0,0-.65,4.92v.4Q98.22,401,98.22,405.08Z"/><path class="cls-2" d="M136.07,429.94q0,3.13-4.77,7.4-4.26,4-7.66,5a22.5,22.5,0,0,1-6.45,1q-8,0-12.53-5.07t-4.51-13.09q0-7.82,4.16-17.46,5-11.56,11.57-11.56c2.43,0,5.37.94,8.82,2.84q5.49,3.13,6.4,6.29a21.79,21.79,0,0,1,.81,6.19,22.71,22.71,0,0,1-1.32,7.1q-1.64,5.07-4.06,5.07a5.74,5.74,0,0,1-3.25-1,3.17,3.17,0,0,1-1.82-2.72c0-.07.3-.84.91-2.32.34-.67.51-2.53.51-5.55a23.55,23.55,0,0,0-.31-4.85c-.4-2.09-1.35-3.13-2.84-3.13q-5,0-7.71,8.6a42.2,42.2,0,0,0-2,12.84q0,10.83,6.9,10.83c1.83,0,3.92-.95,6.29-2.84a16.35,16.35,0,0,0,4.57-5.38q1.62-3.25,3.95-3.25a3.9,3.9,0,0,1,3,1.78A5.47,5.47,0,0,1,136.07,429.94Z"/><path class="cls-2" d="M174,443a6.86,6.86,0,0,1-5.08,1.93q-2.13,0-4.36-2.64v-13.8q0-22.51-6.5-22.52-6.69,0-6.69,18.16V430a31.29,31.29,0,0,0,.51,4.61,32.63,32.63,0,0,1,.5,4.62,2.94,2.94,0,0,1-1.57,2.38,5.28,5.28,0,0,1-2.89,1.07,5.45,5.45,0,0,1-4.31-2.08,6.94,6.94,0,0,1-1.78-4.63l.41-58.73v-1.52q0-3.66,4.05-3.66a8.11,8.11,0,0,1,4.47,1.78c1.69,1.19,2.54,2.39,2.54,3.62a34.12,34.12,0,0,1-1,6.62,33.85,33.85,0,0,0-1,6.61c0,1.91.06,4.93.2,9.07a7.83,7.83,0,0,1,3.76-1.32,22.67,22.67,0,0,1,8.62,1.93,14.84,14.84,0,0,1,8.32,8.22Q174,412.89,174,420.4Z"/><path class="cls-2" d="M212.47,432.47q0,5.07-6.9,7.92a29.22,29.22,0,0,1-11.26,2.23q-15.63,0-15.63-17.76a44.52,44.52,0,0,1,3.55-16.23q4.36-11,10.56-11,5.58,0,12,5T211.25,413c0,4.46-2,8-6,10.65a22,22,0,0,1-12.58,3.56,11.38,11.38,0,0,1-4.57-1.73q.4,9.64,5.68,9.64a17.16,17.16,0,0,0,8.78-2.54c2.87-1.69,4.72-2.53,5.53-2.53Q212.48,430,212.47,432.47Zm-11.06-19.18a8.78,8.78,0,0,0-1.47-4.82,4.47,4.47,0,0,0-3.91-2.28,5.76,5.76,0,0,0-5.17,2.94,11.4,11.4,0,0,0-1.52,6,4.1,4.1,0,0,0,1.32,3.15,4.72,4.72,0,0,0,3.34,1.21Q201.41,419.48,201.41,413.29Z"/><path class="cls-2" d="M254.48,440.69a4.42,4.42,0,0,1-3.76,2.33q-1.72,0-5.68-2v-1.22c0-1.49,0-3.69.1-6.6s.11-5,.11-6.39q0-21.72-6.46-21.71c-1.21,0-2.59.94-4.14,2.84a32.05,32.05,0,0,0-7.16,21,29.37,29.37,0,0,0,.66,5.12,29.57,29.57,0,0,1,.66,5.13,2.73,2.73,0,0,1-1.32,2.33,4.9,4.9,0,0,1-2.84.92q-6.09,0-6.09-7.72V413.5a21.47,21.47,0,0,1,.2-2.39,19.14,19.14,0,0,0,.2-2.38,24.9,24.9,0,0,0-.35-3.55,25.28,25.28,0,0,1-.36-3.45,4.07,4.07,0,0,1,1.88-3.1,5.76,5.76,0,0,1,3.4-1.47q2.24,0,4.57,2.54l-.31,4.06q3.75-6,9.24-6a14.41,14.41,0,0,1,7.5,2.43,16.88,16.88,0,0,1,5.79,5.48q4.16,7.72,4.16,20.3Z"/><path class="cls-2" d="M314.85,424.15q0,13.1-.81,18.47-.51,3.13-4.26,3.14-5.68,0-5.08-5.68a24,24,0,0,1-10.55,2.44,20.39,20.39,0,0,1-10-2.64q-5.69-3.15-5.69-8t6.5-8.93q5.88-3.75,11.06-3.75h8.62v-2.42q.11-10.56-6.29-10.57-8,0-8,7.43c0,1.68-.94,2.52-2.84,2.52a5.71,5.71,0,0,1-3.6-1.58,4.39,4.39,0,0,1-1.88-3.3,12,12,0,0,1,4.06-9.33,14.05,14.05,0,0,1,9.74-3.65Q314.85,398.28,314.85,424.15ZM304.6,427.8c0-1.35-1-2-3-2q-12.69,0-12.69,6,0,3.25,5.59,3.25a11.9,11.9,0,0,0,6.49-1.93Q304.6,431,304.6,427.8Z"/><path class="cls-2" d="M343.46,405.08q0,2.73-8.32,3.85-.19,2.24-.2,10.15v6.69a42.32,42.32,0,0,0,.61,6,42.21,42.21,0,0,1,.61,5.89,3.65,3.65,0,0,1-1.62,2.89,5.27,5.27,0,0,1-3.25,1.27q-2.54,0-4.26-4.37a17.62,17.62,0,0,1-1.32-6.49V409.44c-3.11-.47-4.91-.78-5.38-.91-1.76-.55-2.64-1.32-2.64-2.34a2.59,2.59,0,0,1,.2-.91c1.76-2.5,3.72-3.76,5.89-3.76h.61a2.72,2.72,0,0,0,.61.11c1.42,0,2.09-1.66,2-5v-7.4a4.82,4.82,0,0,1-.51-1.93,3,3,0,0,1,1.56-2.39,5.25,5.25,0,0,1,3-1.06,5.58,5.58,0,0,1,4,2,6,6,0,0,1,1.91,4.21,15.7,15.7,0,0,1-.76,4.82,14.08,14.08,0,0,0-.66,4.92v.4Q343.47,401,343.46,405.08Z"/><path class="cls-2" d="M398,443a6.84,6.84,0,0,1-5.07,1.93c-1.42,0-2.88-.88-4.36-2.64v-13.8q0-22.51-6.5-22.52-6.7,0-6.7,18.16V430a31.29,31.29,0,0,0,.51,4.61,31.53,31.53,0,0,1,.51,4.62,3,3,0,0,1-1.57,2.38,5.31,5.31,0,0,1-2.9,1.07,5.45,5.45,0,0,1-4.31-2.08,7,7,0,0,1-1.77-4.63l.4-58.73v-1.52q0-3.66,4.06-3.66a8.14,8.14,0,0,1,4.47,1.78c1.69,1.19,2.53,2.39,2.53,3.62a33.93,33.93,0,0,1-1,6.62,33.27,33.27,0,0,0-1,6.61q0,2.86.21,9.07a7.8,7.8,0,0,1,3.75-1.32,22.71,22.71,0,0,1,8.63,1.93,14.84,14.84,0,0,1,8.32,8.22Q398,412.89,398,420.4Z"/><path class="cls-2" d="M439.35,421.41A26.44,26.44,0,0,1,434.78,437a16.39,16.39,0,0,1-14,7.4q-8.92,0-13.49-6.08-4.17-5.39-4.16-14.61a34.67,34.67,0,0,1,4.56-17.25q5.28-9.64,13.7-9.64c1.76,0,4,.77,6.6,2.33Q439.35,406,439.35,421.41Zm-8.93-.2q0-15.52-7.51-15.53-5.37,0-8.12,6.6a29.62,29.62,0,0,0-2,11.26q0,13.5,8,13.5,5.18,0,7.71-5.58A24.67,24.67,0,0,0,430.42,421.21Z"/><path class="cls-2" d="M496.37,441.2q-3.4,2.13-5.21,2.13a10.17,10.17,0,0,1-4-1.42V430.75q0-27-4.42-27-3.33,0-5.33,8.22A45.23,45.23,0,0,0,475.88,423v9.33a6.61,6.61,0,0,0,.51,2.08,6.82,6.82,0,0,1,.5,2.08,3.58,3.58,0,0,1-1.72,2.89,5.67,5.67,0,0,1-3.35,1.27,6.14,6.14,0,0,1-5.18-5.07V416.74q0-11.46-2.58-11.46c-.27,0-.86.64-1.75,1.93a34.08,34.08,0,0,0-7.33,20.9,35.71,35.71,0,0,0,.45,4.72,34,34,0,0,1,.46,4.61,4.61,4.61,0,0,1-1.27,3.35,4.38,4.38,0,0,1-3.3,1.32,4.74,4.74,0,0,1-3.75-1.62c-.34-.47-.75-2.06-1.22-4.76a37.91,37.91,0,0,1-.61-5.16V408.5A24,24,0,0,1,447,402c1-3.24,2.1-4.86,3.25-4.86a5.2,5.2,0,0,1,3.65,1.54,4.15,4.15,0,0,1,1.42,3.53q2.94-4.86,7.61-4.87,5.79,0,9.44,7.72a24.56,24.56,0,0,1,3.45-6.3,8,8,0,0,1,6.29-2.94q3.75,0,7.61,4,6.69,6.79,6.69,23.24Z"/><path class="cls-2" d="M537.16,432.47q0,5.07-6.9,7.92A29.22,29.22,0,0,1,519,442.62q-15.63,0-15.62-17.76a44.31,44.31,0,0,1,3.55-16.23q4.35-11,10.55-11,5.58,0,12,5T536,413c0,4.46-2,8-6,10.65a22,22,0,0,1-12.58,3.56q-1.43,0-4.57-1.73.41,9.64,5.68,9.64a17.16,17.16,0,0,0,8.78-2.54q4.32-2.54,5.53-2.53Q537.17,430,537.16,432.47ZM526.1,413.29a8.78,8.78,0,0,0-1.47-4.82,4.46,4.46,0,0,0-3.9-2.28,5.77,5.77,0,0,0-5.18,2.94,11.49,11.49,0,0,0-1.52,6,4.1,4.1,0,0,0,1.32,3.15,4.74,4.74,0,0,0,3.35,1.21Q526.1,419.48,526.1,413.29Z"/></g></g></svg>