<svg xmlns="http://www.w3.org/2000/svg" viewBox="0 0 529.93 347.53"><defs><style>.cls-1{fill:#37405d;}.cls-2{fill:#eba348;}</style></defs><g id="Calque_2" data-name="Calque 2"><g id="Calque_1-2" data-name="Calque 1"><path class="cls-1" d="M252.65,172,60,347.53H445.28Zm-1.38,148.73H218.54v-34.5h32.73Zm0-45.16H218.54V241h32.73Zm43.27,45.16H261.81v-34.5h32.73Zm-32.73-45.16V241h32.73v34.5Z"/><polygon class="cls-2" points="375.54 135.11 414.06 135.11 414.06 208.8 375.54 176.16 375.54 135.11"/><path class="cls-2" d="M168.1,0s-6.76,29.07,56.77,106.37c4.94-8.52,11.7-17.93,22.92-29.82Z"/><path class="cls-2" d="M364.24,188.39l-61.15-58.73c-10.33,9-21.47,20.55-33.57,27.15,14.45,15.31,25.44,26,44.58,43.84,0,0,15.65-6,26.95,4S490.73,347.53,490.73,347.53h39.2Z"/><path class="cls-1" d="M217.24,142.94c-4.2,15-65,64.69-65,64.69L0,347.53H34.7l149.55-147.8s34.59-35.6,51.26-41.21c8.18,1.29,18.15-2,28.39-7.63-13.35-14.15-24.83-27.22-34.73-39.25C221.21,125.38,219.38,135.25,217.24,142.94Z"/><path class="cls-1" d="M322.68,102.62,377.21,46.2l-4.74-5.05L290.74,117.8l8.05,7.73C312.68,113.41,322.68,102.62,322.68,102.62Z"/><path class="cls-1" d="M284.1,111.36l82-76.95-4.74-5-80.88,75.85-6.06-6.45L355.36,22.9l-5.27-5.62L269.21,93.14l-6.42-4.5,80.72-78.38-3.69-3.93S324.23,16.2,274.3,60.39c-8.5,7.52-15.64,14.44-21.65,20.82l32,30.73Z"/><path class="cls-1" d="M290.74,117.8l-.32.3-5.77-6.16-32-30.73c-11.22,11.9-18.53,21.91-23.48,30.43,9.9,12,21.38,25.1,34.73,39.25,12.1-6.6,24.57-16.34,34.89-25.36Z"/></g></g></svg>