<svg xmlns="http://www.w3.org/2000/svg" viewBox="0 0 163.91 257.61"><defs><style>.cls-1{fill:#e39533;}.cls-2{fill:none;stroke:#e39533;stroke-miterlimit:10;stroke-width:11px;}</style></defs><g id="Calque_2" data-name="Calque 2"><g id="Calque_1-2" data-name="Calque 1"><path class="cls-1" d="M30.64,201.36c10.26-14.43,16-30.5,18.87-47.6,1.87-11,1.82-22.09,2-33.18,0-2.24-.4-3.7-2.78-4.51-3.17-1.09-4.59-3.57-4.44-7,.21-4.94-1.38-11.21,1.07-14.44s9-.77,13.71-1,9.6.09,14.4-.1c2.72-.1,3.73.64,3.72,3.57q-.14,57.65,0,115.28c0,2.55-.69,3.45-3.34,3.44q-35.26-.14-70.53,0c-2.72,0-3.29-1-3.29-3.5Q.15,154.76,0,97.13c0-3,1.18-3.54,3.81-3.5,8.44.13,16.89.17,25.32,0,3-.07,3.56,1.08,3.47,3.75-.69,21.13-.79,42.28-1.87,63.41C30.08,174.27,30.64,187.83,30.64,201.36Z"/><path class="cls-1" d="M87.29,205.51c0-15.41.11-30.82-.08-46.23,0-3.7.66-5.09,4.79-5.05,22.35.23,44.71.18,67.06,0,3.45,0,4.87.48,4.85,4.48q-.28,47.22,0,94.44c0,3.48-.93,4.51-4.42,4.42-8.77-.25-17.55-.17-26.33,0-2.74,0-3.72-.82-3.92-3.62-.72-9.92-.63-19.35,6.8-27.46,4.14-4.52,4.68-10.89,4.93-16.87.51-11.94-.77-23.82-1.83-35.69-.11-1.25.17-3-1.93-2.66s-1.34,2-1.35,3.16c-.06,9.77,0,19.55-.1,29.32,0,1.53,1.15,4.31-1.81,4.19s-2.22-2.64-2.23-4.71c-.07-9.76-.27-19.51-.47-29.27,0-1.05.4-2.66-1.35-2.64-2.05,0-1.51,1.84-1.53,3-.14,9-.22,17.9-.32,26.84,0,1.33-.05,2.65,0,4,0,1.61-.08,3-2.31,2.87-2.07-.14-1.7-1.66-1.73-2.9q-.33-13.92-.62-27.83a26.9,26.9,0,0,0-.06-3c-.14-1.16.59-3.09-1.48-3s-1.39,2-1.41,3.15c-.15,9.78-.18,19.55-.39,29.33,0,1.51,1.16,4.08-1.87,4.19-3.21.12-1.94-2.55-2-4-.12-9.94,0-19.88-.08-29.82,0-1.14.68-2.87-1.55-2.93-1.71,0-1.75,1.29-1.82,2.39-.86,13.83-3.17,27.61-1.27,41.51a27.22,27.22,0,0,0,6.6,14.73c7,7.84,4.48,17.15,4.06,26.13-.07,1.61-1.47,1.52-2.63,1.53-9.77,0-19.54-.1-29.31.06-3.67.06-2.86-2.37-2.86-4.36Q87.27,229.37,87.29,205.51Z"/><path class="cls-1" d="M125.6,144.58H92c-3,0-4.95-.27-4.84-4.52.38-14.22.24-28.46.07-42.69,0-3,.72-3.85,3.81-3.83q34.48.21,69,0c2.95,0,3.94.56,3.89,3.75-.19,14.4-.22,28.8,0,43.19,0,3.56-1.31,3.92-4.26,3.88-11.34-.14-22.69,0-34,0Z"/><path class="cls-1" d="M39.1,225.91c11.41,0,22.83.09,34.24-.07,3,0,4,.79,3.93,3.89-.21,8.1-.15,16.22,0,24.32,0,2.52-.68,3.48-3.34,3.47q-35.24-.13-70.45,0c-2.58,0-3.47-.78-3.43-3.4.13-8.27.18-16.54,0-24.81-.07-3.12,1.34-3.45,3.88-3.43C15.62,226,27.36,225.91,39.1,225.91Z"/><path class="cls-2" d="M49.84,99.18S38.54,5.5,78.06,5.5s35.31,93.73,35.31,93.73"/></g></g></svg>