<svg xmlns="http://www.w3.org/2000/svg" viewBox="0 0 261.54 378.69"><defs><style>.cls-1{fill:#eba348;}.cls-2{fill:#37405d;}.cls-3{fill:#cfad88;}.cls-4{fill:#c4a17c;}.cls-5{fill:#7f5d3e;}</style></defs><g id="Calque_2" data-name="Calque 2"><g id="Calque_1-2" data-name="Calque 1"><path class="cls-1" d="M173.78,374.58c-14.07-1.35-28-4-41.89-6.28q-43.75-7.2-87.45-14.82c-11.61-2-23.12-4.67-34.71-6.81C6,346,4.1,344.19,3.87,340.51q-1.29-20.37-2.55-40.76C4,303.21,3.5,307.4,3.79,311.31c.37,5,.06,10,.13,15,0,1.49.91,3.92,2.29,2.6,5.38-5.14,12.56-7.17,18.35-11.49.8-.6,1.57-1.57,1.05-2.58-1-1.83-1.9-.22-2.77.25a2.37,2.37,0,0,1-3.16-.31c-.64-.66-1-1.69-.4-2.24,2.81-2.52,6.35-.41,9.44-1.29,2.23-.63,1.92,1,2.28,2.23s1,2.3,2.47,1.67,1-1.59.54-2.87c-1.5-3.83,0-5.8,4.37-5.85.83,0,2.06.27,2-.68-.12-1.89-.25-3.3,2.33-3.05a4.39,4.39,0,0,1,4.17,3.64c.35,1.39,1.41,2.22,2.31,3.19,1.3,1.41,2.4,2.68-.7,3.25-2.18.4-2.33,2.61-3.19,4.15-.67,1.21-.3,2.2,1,2.91a2.44,2.44,0,0,0,3.12-.28c4.48-3.49,7.16-2.67,9.81,2.94.46,1,1.17,1.36,1.91,1.08,2.83-1.09,6.33-1.14,7.61-4.76,1-2.84,2.17-5.53,5.53-6.48a1.9,1.9,0,0,0,1.23-2.81c-.58-1.08-1.73-.78-2.64-.28-1.95,1-4,1.89-6.2,1.35-2.92-.72-4.93-3.39-4.27-5.73.79-2.84,2.4.57,3.76.63.66,0,1.48.24,2-.06,4.51-2.9,7.52-.14,10.67,2.58,1.07.93,1.91,3.48,3.87,1.73,1.32-1.18,3.1-2.88.92-5.06a1.72,1.72,0,0,1,0-2.66c.87-.73,1.89-1.44,3.17-.83s2.43,1.1,3.6,1.74c1.47.81,2.81.89,4.08-.37,1-1,1.69-2.14,1.22-3.57-.56-1.67-2.1-2-3.58-2.26s-3-.34-4.38-.72c-1-.25-2-1-1.53-2.13a6.83,6.83,0,0,1,2.24-2.55,1.35,1.35,0,0,1,2,.77c1.78,4.54,4.76,3,7.48,1.35a16.57,16.57,0,0,1,6.46-2.15c-1.91-5.32-1.48-5.62,3.24-8.54,2-1.26,2.72.9,4.47.43,6.71-1.79,6.77-1.58,8.5,5.15a25.1,25.1,0,0,0,.82,3.37c1.45,3.52,3.6,4,5.75.86a13,13,0,0,1,4.67-3.83,53,53,0,0,0-4.45-3.63c-1.17-.78-3.26-.87-2.05-3,1-1.8,2.7-1.41,4.42-.95,2.1.56,3.06,3.08,5.9,3.15-2-6.86,1.39-10.16,7.44-11.94,1.83-.54,2.19-2.28,1.15-4-2-.58-3.45,4.75-4.74,1-.78-2.24-.92-2.11-2.78-2.08-2.16,0-2.69-1.7-3-3.81-.67-5.21,4.52-8.3,4.4-13.43-.06-2.54,2.83,0,4.08-1,.51-.36.69-1.18,1.2-1.54,4-2.77,6.23-7,9-10.82.67-.92,1.47-2,2.82-1.62.53.16,1.36,1.14,1.26,1.35-2.27,4.51,3.84,9.05-.18,13.68-1.27,1.48,0,4.36,1.21,4.81,2.42.86,1.66-2.06,2.5-3.2,1.8-2.46,1.93-7.8,7.55-4.42,2,1.18,3.95-1.32,5.63-2.41,1.43-.93,0-2.86-.59-4.07-1.1-2.36-2.81-4.46,1.34-5.52.6-.15,1.18-1.2,1.4-1.94,1.35-4.49,4.85-7.16,8.08-10.16a14.38,14.38,0,0,0,4.57-10c0-1.93-.82-4.72-.65-6.9.21-2.76-.15-4.56-2.46-6.24a4.75,4.75,0,0,1-1.92-4.88c.58-2.31,2.71-1.36,4.22-1.52,3.14-.34,3.44-2.51,1.66-4-2.86-2.42-1.72-3.59.52-5.18a2.92,2.92,0,0,0,1.19-3.53c-.74-1.92-2.13-.9-3.34-.57-1,.27-2.06.54-2.82-.3-1-1.15,0-2.07.5-3.1,1.48-3,2.67-6.08,2.29-9.46a2.16,2.16,0,0,1,2.07-2.75c4.63-.72,3.21-2.19.85-4.45s-2.13-10.53-.1-11.48c1.08-.52,3.14-.12,2.33-2.21-.59-1.53-2.34-.94-3.58-.89a5,5,0,0,0-4.41,2.79c-.67,1.22-1,3.1-3,2.69a1.9,1.9,0,0,1-1.19-1.38,4.2,4.2,0,0,1,2-3.83c3.19-1.59,7.39-1.85,7.51-6.84,0-.18,1.49-.32,2.29-.48a47.71,47.71,0,0,0,5.34-1.11c3.37-1.08,4.16-4,1.44-6.22-2.53-2.07-2.21-3.23.28-4.82,1.52-1,2.75-2.4,4.21-3.49,1.18-.88,3-1.46,2.25-3.33s-2.38-.09-3.45-.4c-2.73-.81-8.8,3.12-6.91-4.8a5.42,5.42,0,0,1,2.19-3.53c1.29-.93,2.09-2,.56-3.14-3.36-2.53-1.83-4.92-.47-7.81.83-1.77,3.42-2.73,3.08-4.25-1.2-5.33,3.74-9.46,2.39-14.75-.54-2.12.24-4.23,1.4-6.18,1.44-2.41-.19-8-3.18-9.11-4-1.53-1.16,3-2.84,3.86-.27.13-.38.57-.65.75-3.23,2.14-2.51,4.46-.48,7,.61.76,2,1.5.75,3.17-2.21-1.52-5.32-2-5-5.8.12-1.72,2.07-4.2-1.24-4.83a5.06,5.06,0,0,0-5.72,3c-1.28,2.48-4,3.29-6.18,4.53-1.09.61-4.67.48-4-.73,1.76-3.4-1.39-2.9-2.34-4.06-3.08-3.76-8.45-3.94-11.75-7.79-1.85-2.16-6.48-2.59-8.74-1.1-4.86,3.18-9.07,3.46-13.78.35a1.9,1.9,0,0,0-1.83.12c-1.95,2.13-6.21.48-7.07,4.42a1.27,1.27,0,0,1-2.08.47c-3.39-5-9.23-2-13.52-4.21A16.26,16.26,0,0,0,104,63.72c-2.08.39-3.92,0-4.55-2.6-.53-2.22-2.4-2.67-4.34-2.3-4,.75-8.09-.17-12.09,1.59a6.55,6.55,0,0,1-8.1-2c-1.25-1.6-3-1.63-5-2.06-3.71-.82-7.68,1.68-11-1-3.08-2.53-6.64-2.45-10.34-2.57-4.93-.16-9.86-.78-14.77-1.31-.37,0-.64-1-.95-1.56,2.5,0,5-.07,7.48-.13,18.86-.45,37.34,4.67,56.35,3.41,6.09-.4,12.88,1.37,19,1.21,13.6-.34,27,2.92,40.6,1.62,7.84-.74,15.88.88,23.82.69,11.83-.29,23.64-1.23,35.46-1.93,5.92-.35,12-.17,17.15-3.89-1,6-2.26,12-3,18.12-2.42,20.5-4.56,41-7,61.55-2.7,22.83-3.4,45.86-6.77,68.63-.32,2.15-1,4.62.65,6.69l.06,7.85a12.12,12.12,0,0,0-.84,2.31c-2.52,16.12-2.78,32.43-4,48.66-2,9.58-1.51,19.42-3,29.06-.6,3.79-.51,7.78,4.87,8.54a3.33,3.33,0,0,1,2.41,1.57c1.85,6,6.38,9,11.89,11,.87.32,1.49,1.29,2.29,1.87,8,5.69,14.15,14.13,24.53,16.26.85.17.9,1.29.95,2.12-6.29,5.88-13.6,10.46-20.24,15.83-8.14,6.57-16.27,13.15-24.48,19.64-2.33,1.84-4.39,4.07-7.22,5.23.1-2-1.19-4.69,2.9-4.51,1.14,0,3.48-2.19,3.37-3.15-.55-4.4,4.44-5.76,4.71-9.52a1.83,1.83,0,0,1,2.41-1.8c5.64,1,5.49-3,5.18-6.39-.19-2.11.15-2.72,2.1-2.7,2.41,0,4.83-1.26,7.24,0l.45.21-.41-.25a4.5,4.5,0,0,1,1.54-4c2.31-2.08,7.14-1.42,7-6.3,0,0,1-.26,1.31-.06,1.28.76,2.65,2.09,3.66-.06.8-1.69-.94-2.78-1.82-3.78-3.5-4-10-4.56-12.94-3.53-5.85,2.09-9.94-1.75-14.87-1.54-.57,0-1.27-1-1.76-1.59-1.19-1.56-2.18-4-4.32-3.59-2.69.49-1.62,3.63-2.51,5.48-.53,1.11-.15,2.62-.27,3.94-.58,6.07.62,12.55-4.18,17.64-.92,1-.1,2.18-.06,3.3a103,103,0,0,1,0,13.94c-.52,5-3.43,6.13-7.51,3.42-.85-.57-1.53-1.3-2.61-1.16-8.3,1.14-16.37-.51-24.42-2.14-3.07-.62-5.45-5.23-9.24-1.51-5.41-4.53-9.53,1.17-14.38,1.47,8.41,2.06,16.77,3.62,25.17,5C171.25,372.86,172.93,372.73,173.78,374.58ZM67.28,355.65a22.91,22.91,0,0,0,3,0c1.51-.21,3.91.9,4.2-1.36s-2.45-2.38-3.71-2.39c-8.26-.09-14.65-5.91-22.86-7.05a80.25,80.25,0,0,1-15-3.66c-5.32-1.87-12.17-.86-14.73-8-.27-.75-1.72-.55-2.17.12-1.26,1.85-3.11,2-5,2.63-2.07.65-4.58,2-4.88,4.45-.34,2.84,2.7,3.36,4.56,4.58a5.79,5.79,0,0,0,1.87.61l23.7,5C46.5,352.73,57.05,353.25,67.28,355.65ZM40,322c-.34-2.27-.2-4.87-2.43-4.75s-3,2.35-2.47,4.63c.28,1.11.94,2.13.48,3.35-.37,1-.65,2,.82,2.3a2,2,0,0,0,2.56-1.69C39.3,324.39,39.71,323,40,322Zm1.82-9.84c-.19-.82-.45-2.06-1.87-2.08a1.55,1.55,0,0,0-1.61,2.27c.44,1.05.09,3,2,2.84C41.54,315,41.83,313.69,41.8,312.14ZM34.85,332.9c2,.89,3.34,1,4.38-.46a1.31,1.31,0,0,0-.1-1.26C37.48,330.24,36.43,331.35,34.85,332.9Z"/><path class="cls-1" d="M32.85,49.84c.31.54.58,1.52.95,1.56,4.91.53,9.84,1.15,14.77,1.31,3.7.12,7.26,0,10.34,2.57,3.32,2.7,7.29.2,11,1,2,.43,3.73.46,5,2.06a6.55,6.55,0,0,0,8.1,2c4-1.76,8.1-.84,12.09-1.59,1.94-.37,3.81.08,4.34,2.3.63,2.62,2.47,3,4.55,2.6A16.26,16.26,0,0,1,114.5,65c4.29,2.22,10.13-.84,13.52,4.21a1.27,1.27,0,0,0,2.08-.47c.86-3.94,5.12-2.29,7.07-4.42a1.9,1.9,0,0,1,1.83-.12c4.71,3.11,8.92,2.83,13.78-.35,2.26-1.49,6.89-1.06,8.74,1.1,3.3,3.85,8.67,4,11.75,7.79.95,1.16,4.1.66,2.34,4.06-.62,1.21,3,1.34,4,.73,2.19-1.24,4.9-2,6.18-4.53a5.06,5.06,0,0,1,5.72-3c3.31.63,1.36,3.11,1.24,4.83-.27,3.79,2.84,4.28,5,5.8,1.26-1.67-.14-2.41-.75-3.17-2-2.55-2.75-4.87.48-7,.27-.18.38-.62.65-.75,1.68-.82-1.2-5.39,2.84-3.86,3,1.14,4.62,6.7,3.18,9.11-1.16,2-1.94,4.06-1.4,6.18,1.35,5.29-3.59,9.42-2.39,14.75.34,1.52-2.25,2.48-3.08,4.25-1.36,2.89-2.89,5.28.47,7.81,1.53,1.15.73,2.21-.56,3.14a5.42,5.42,0,0,0-2.19,3.53c-1.89,7.92,4.18,4,6.91,4.8,1.07.31,2.7-1.43,3.45.4s-1.07,2.45-2.25,3.33c-1.46,1.09-2.69,2.52-4.21,3.49-2.49,1.59-2.81,2.75-.28,4.82,2.72,2.23,1.93,5.14-1.44,6.22a47.71,47.71,0,0,1-5.34,1.11c-.8.16-2.28.3-2.29.48-.12,5-4.32,5.25-7.51,6.84a4.2,4.2,0,0,0-2,3.83,1.9,1.9,0,0,0,1.19,1.38c2,.41,2.33-1.47,3-2.69a5,5,0,0,1,4.41-2.79c1.24,0,3-.64,3.58.89.81,2.09-1.25,1.69-2.33,2.21-2,1-2.17,9.3.1,11.48s3.78,3.73-.85,4.45a2.16,2.16,0,0,0-2.07,2.75c.38,3.38-.81,6.49-2.29,9.46-.52,1-1.53,1.95-.5,3.1.76.84,1.84.57,2.82.3,1.21-.33,2.6-1.35,3.34.57a2.92,2.92,0,0,1-1.19,3.53c-2.24,1.59-3.38,2.76-.52,5.18,1.78,1.5,1.48,3.67-1.66,4-1.51.16-3.64-.79-4.22,1.52a4.75,4.75,0,0,0,1.92,4.88c2.31,1.68,2.67,3.48,2.46,6.24-.17,2.18.63,5,.65,6.9a14.38,14.38,0,0,1-4.57,10c-3.23,3-6.73,5.67-8.08,10.16-.22.74-.8,1.79-1.4,1.94-4.15,1.06-2.44,3.16-1.34,5.52.56,1.21,2,3.14.59,4.07-1.68,1.09-3.66,3.59-5.63,2.41-5.62-3.38-5.75,2-7.55,4.42-.84,1.14-.08,4.06-2.5,3.2-1.25-.45-2.48-3.33-1.21-4.81,4-4.63-2.09-9.17.18-13.68.1-.21-.73-1.19-1.26-1.35-1.35-.38-2.15.7-2.82,1.62-2.77,3.8-5,8-9,10.82-.51.36-.69,1.18-1.2,1.54-1.25.91-4.14-1.59-4.08,1,.12,5.13-5.07,8.22-4.4,13.43.28,2.11.81,3.83,3,3.81,1.86,0,2-.16,2.78,2.08,1.29,3.73,2.76-1.6,4.74-1,1,1.71.68,3.45-1.15,4-6.05,1.78-9.45,5.08-7.44,11.94-2.84-.07-3.8-2.59-5.9-3.15-1.72-.46-3.41-.85-4.42.95-1.21,2.15.88,2.24,2.05,3a53,53,0,0,1,4.45,3.63,13,13,0,0,0-4.67,3.83c-2.15,3.1-4.3,2.66-5.75-.86a25.1,25.1,0,0,1-.82-3.37c-1.73-6.73-1.79-6.94-8.5-5.15-1.75.47-2.44-1.69-4.47-.43-4.72,2.92-5.15,3.22-3.24,8.54a16.57,16.57,0,0,0-6.46,2.15c-2.72,1.67-5.7,3.19-7.48-1.35a1.35,1.35,0,0,0-2-.77,6.83,6.83,0,0,0-2.24,2.55c-.5,1.13.57,1.88,1.53,2.13,1.43.38,2.92.46,4.38.72s3,.59,3.58,2.26c.47,1.43-.21,2.56-1.22,3.57-1.27,1.26-2.61,1.18-4.08.37-1.17-.64-2.39-1.18-3.6-1.74s-2.3.1-3.17.83a1.72,1.72,0,0,0,0,2.66c2.18,2.18.4,3.88-.92,5.06-2,1.75-2.8-.8-3.87-1.73-3.15-2.72-6.16-5.48-10.67-2.58-.47.3-1.29.09-2,.06-1.36-.06-3-3.47-3.76-.63-.66,2.34,1.35,5,4.27,5.73,2.2.54,4.25-.3,6.2-1.35.91-.5,2.06-.8,2.64.28a1.9,1.9,0,0,1-1.23,2.81c-3.36.95-4.52,3.64-5.53,6.48-1.28,3.62-4.78,3.67-7.61,4.76-.74.28-1.45-.12-1.91-1.08-2.65-5.61-5.33-6.43-9.81-2.94a2.44,2.44,0,0,1-3.12.28c-1.25-.71-1.62-1.7-1-2.91.86-1.54,1-3.75,3.19-4.15,3.1-.57,2-1.84.7-3.25-.9-1-2-1.8-2.31-3.19a4.39,4.39,0,0,0-4.17-3.64c-2.58-.25-2.45,1.16-2.33,3.05.06.95-1.17.67-2,.68-4.35,0-5.87,2-4.37,5.85.5,1.28.85,2.27-.54,2.87s-2.11-.47-2.47-1.67-.05-2.86-2.28-2.23c-3.09.88-6.63-1.23-9.44,1.29-.61.55-.24,1.58.4,2.24a2.37,2.37,0,0,0,3.16.31c.87-.47,1.81-2.08,2.77-.25.52,1-.25,2-1.05,2.58-5.79,4.32-13,6.35-18.35,11.49-1.38,1.32-2.27-1.11-2.29-2.6-.07-5,.24-10-.13-15-.29-3.91.16-8.1-2.47-11.56a24.71,24.71,0,0,1-.39-8.09c1.25-2.69,1.85-5.35-.33-7.89L.48,281.6c2.24-2.64,2.36-5.26-.08-7.85a9.59,9.59,0,0,1,.22-6.17C3,261.29,2.12,255,.78,248.64v-1.88c1.61-1.69,1.62-3.38,0-5.09a569.38,569.38,0,0,1,5.52-73.8c2.15-15.58,4.47-31.14,6.74-46.71a28,28,0,0,1,.91-3.34c2.07,4.15-1,8.94,1.63,13-4.26,3.76-2.28,9.31-3.93,13.8-1.79,4.87-.7,10.06-1.83,14.95-2.19,9.47-5.13,18.88-.66,28.48A2.34,2.34,0,0,1,8,191.4c-2.79,1-1.67,2.61-1.21,4.38,1.46,5.7,6.61,7.5,10.89,9.86,2.76,1.52,3.33,2.81,3,5.76-.63,5-4.44,6.53-8.07,8.33a6,6,0,0,0-3.38,5.63c0,2.48,2.36,2.22,4.19,2.37,3.2.26,5.3,2.48,7.53,4.45,1,.86,1.71,2.47,3.17,2.16,6.64-1.41,10.2,1.68,11.67,8.81,1.58-2.86,1.28-4.57-.05-6.26a1.57,1.57,0,0,1,0-2.24c.73-.77,1.4-.58,2.16,0,1.9,1.45,4.69.08,6.65,2.7.93,1.26,4.64.66,3.68-3.28-.85-3.48.5-4.2,4.06-3.62s5.61,3.27,8.7,4.21c4.61,1.41,9.43-.41,14.13.93,2.25.64,3.8-.8,3.79-3.37,0-2.73,1.92-4,3.86-5.38,3.88-2.75,8.88-4.08,10.72-9.42.66-1.92,3.73-2.53,5.29-1.46,3.69,2.55,7.47.51,9.28-1.2a7.65,7.65,0,0,0,.77-9.65c-.38-.55-.82-1.15-.32-1.78.64-.81,1.51-.55,2.23-.09,3.6,2.3,8.52-2.14,11.78,2.27.09.13,1.6-1,2.52-1.24,5.49-1.51,11-3.57,16.73-1.23,1.78.73,2.93-.06,3.9-1.21s1.46-2.25.23-3.56-3-2.29-4.4-1.15c-3,2.4-5.53,1.31-8.25-.24-1.46-.83-2.94-1.46-4.71-.58-1,.49-2.4.88-3.09-.42-.57-1.07.78-1.65,1.2-2.49.94-1.87,3.65-4.49-1.62-4.07-1,.08-2-1-3.06-1.45s-2.05-.53-1.83-1.9,1.43-1.49,2.3-1.51c3.69-.11,7.95.35,10,3.12,2.25,3.07,3.14,1.69,4.89.24,2.21-1.82,2.07-4.8,3.56-6.94.59-.85,2.41-1.3,1.18-2.67-.85-.95-2.14-.44-3.21.18s-2.66,1-3.41,1.95c-2.85,3.61-5.44,2.79-8.41.16-1.22-1.08-2.92-2.68-4.53-.13-.45.72-1.23,1.34-2,.6a2.1,2.1,0,0,1-.19-1.82,5.37,5.37,0,0,0,.17-4.35,5.53,5.53,0,0,1,3.65-7.58c4.88-1,3.66-2.88,2.3-5.73-.93-1.94.12-2.9,2.08-2.64s4,1.86,5.14-.93c1-2.5-.25-4.43-2.1-6.16-1-1-3.24-2.59-2.09-3.44,4.2-3.08,1.72-9.86,7.31-12.11,2-.79,3-2.79-.45-3.89-3.7-1.18-2.06-3.86-1.34-6.18.83-2.68,2.49-2.52,4.69-1.57,4.56,2,10.59.67,13.51,6.49.6,1.19,3.29,1.36,4.33-.33s-.25-2.33-1.83-3.18a15.56,15.56,0,0,1-5.45-4.77,4,4,0,0,0-3.48-2.08c-5.66-.43-5.78-.7-2.71-5.57,1.43-2.26,2.46-3.6-.89-5.84-3.87-2.58,1-5.77,1.26-8.82.21-2.11,2.58-1.91,4.52-1.12,4.15,1.67,5.17.89,5.1-3.81,0-1.52.32-3.08,2-2.68,5,1.18,8.72-2.27,13.13-3.16,2.35-.47,3.3-1.5,1.5-3.73-1-1.22-1.8-2.57-2.77-4-2.68,2.07-4.49,5.26-8.49,3.89-1.1-.38-2,1-2.86,1.74-3.87,3.28-7,8.21-13.47,4.3-1.79-1.09-5.47.06-6.32,1.59-1.32,2.38,2.53,1.67,3.38,3.11.73,1.22,2.41,2.32,1.83,3.75-.51,1.24-2.07,1-3.52.75-3.3-.62-4.27,1.53-4.54,4.39-.3,3.11-1.68,4-4.11,1.55-3.26-3.23-8.11-5.59-5.95-11.73.43-1.21-.49-2.87-.65-4.34-.47-4.24-4-4.36-5.48-2.3-2.43,3.52-6.92,3.07-9.24,6.27-1.07,1.48-2.73.64-4.08-.08-1-.51-1.84-1.49-1-2.35,2.2-2.3.74-3.54-1.12-4.59-2.21-1.24-4.63-2.18-6.92-.29-.78.64-.83,2.44-2.46,1.31-1.13-.78-2-1.72-1.37-3.34s1-3.58-1-4.33c-2.24-.86-2.34,1.79-3.44,2.83s-.92,2.44-1.33,3.67-1.68,2.46-2.49,1c-3.57-6.46-14.6-4.8-15.36-14.38-.12-1.46-2.29-2.76-4.4-2.67-1.5.07-3-.06-4.5,0-3.58.2-5.92-1-5.5-5,.25-2.39-1.07-1.66-2.44-1.56-5.68.44-11.22.83-16.72-1.94-3.65-1.84-8.49-4.07-10.78,2.42,0,.08-.31.07-.48.11,1.3-4.94.61-10.26,2.9-15C28,49.38,30.46,49.73,32.85,49.84ZM59.54,283.06c-.81-.27-1.7-.44-2.23.37a2.38,2.38,0,0,0,.24,3.19c2.32,1.92,1.33,5.9,2.83,6.88,3.18,2.09,3-3.94,6.09-3.8.48,0,1.16,0,1.42-.31C69,288.12,71,287.06,70.27,285c-.6-1.65-2.2-2.15-4-2.35C64,282.37,61.86,284.43,59.54,283.06ZM55.1,305.67c2.91,0,5-5.59,3.25-8.63-.82-1.43-1.92-3.63-4.11-2.78-1.91.75-1.58,2.73-.89,4.34a4,4,0,0,1-.36,3.78C51.35,305.26,52.82,305.87,55.1,305.67ZM189.64,102.92c-1.19,0-1.8.56-1.62,1.5.29,1.54,1.68,1.87,2.93,2.13.89.19,1.73-.29,1.35-1.33A3.4,3.4,0,0,0,189.64,102.92ZM57.44,315.56c1.47,0,2.2-.43,2.17-1.38,0-1.3-1.07-1.51-2.11-1.4s-1.54.59-1.38,1.62A1.3,1.3,0,0,0,57.44,315.56Z"/><path class="cls-1" d="M23,65.77c.17,0,.45,0,.48-.11,2.29-6.49,7.13-4.26,10.78-2.42,5.5,2.77,11,2.38,16.72,1.94,1.37-.1,2.69-.83,2.44,1.56-.42,4.07,1.92,5.23,5.5,5,1.5-.08,3,0,4.5,0,2.11-.09,4.28,1.21,4.4,2.67C68.53,84,79.56,82.34,83.13,88.8c.81,1.47,2.1.16,2.49-1s.26-2.67,1.33-3.67,1.2-3.69,3.44-2.83c2,.75,1.64,2.69,1,4.33s.24,2.56,1.37,3.34c1.63,1.13,1.68-.67,2.46-1.31,2.29-1.89,4.71-1,6.92.29,1.86,1.05,3.32,2.29,1.12,4.59-.82.86,0,1.84,1,2.35,1.35.72,3,1.56,4.08.08,2.32-3.2,6.81-2.75,9.24-6.27,1.44-2.06,5-1.94,5.48,2.3.16,1.47,1.08,3.13.65,4.34-2.16,6.14,2.69,8.5,5.95,11.73,2.43,2.4,3.81,1.56,4.11-1.55.27-2.86,1.24-5,4.54-4.39,1.45.27,3,.49,3.52-.75.58-1.43-1.1-2.53-1.83-3.75-.85-1.44-4.7-.73-3.38-3.11.85-1.53,4.53-2.68,6.32-1.59,6.45,3.91,9.6-1,13.47-4.3.88-.75,1.76-2.12,2.86-1.74,4,1.37,5.81-1.82,8.49-3.89,1,1.4,1.78,2.75,2.77,4,1.8,2.23.85,3.26-1.5,3.73-4.41.89-8.14,4.34-13.13,3.16-1.68-.4-2,1.16-2,2.68.07,4.7-.95,5.48-5.1,3.81-1.94-.79-4.31-1-4.52,1.12-.3,3-5.13,6.24-1.26,8.82,3.35,2.24,2.32,3.58.89,5.84-3.07,4.87-2.95,5.14,2.71,5.57a4,4,0,0,1,3.48,2.08,15.56,15.56,0,0,0,5.45,4.77c1.58.85,2.84,1.56,1.83,3.18s-3.73,1.52-4.33.33c-2.92-5.82-8.95-4.51-13.51-6.49-2.2-1-3.86-1.11-4.69,1.57-.72,2.32-2.36,5,1.34,6.18,3.5,1.1,2.42,3.1.45,3.89-5.59,2.25-3.11,9-7.31,12.11-1.15.85,1.08,2.49,2.09,3.44,1.85,1.73,3.11,3.66,2.1,6.16-1.13,2.79-3.28,1.16-5.14.93s-3,.7-2.08,2.64c1.36,2.85,2.58,4.75-2.3,5.73a5.53,5.53,0,0,0-3.65,7.58,5.37,5.37,0,0,1-.17,4.35,2.1,2.1,0,0,0,.19,1.82c.79.74,1.57.12,2-.6,1.61-2.55,3.31-.95,4.53.13,3,2.63,5.56,3.45,8.41-.16.75-.95,2.27-1.29,3.41-1.95s2.36-1.13,3.21-.18c1.23,1.37-.59,1.82-1.18,2.67-1.49,2.14-1.35,5.12-3.56,6.94-1.75,1.45-2.64,2.83-4.89-.24-2-2.77-6.27-3.23-10-3.12-.87,0-2.1.24-2.3,1.51s.92,1.51,1.83,1.9,2.09,1.53,3.06,1.45c5.27-.42,2.56,2.2,1.62,4.07-.42.84-1.77,1.42-1.2,2.49.69,1.3,2.08.91,3.09.42,1.77-.88,3.25-.25,4.71.58,2.72,1.55,5.26,2.64,8.25.24,1.42-1.14,3.14-.22,4.4,1.15s.63,2.54-.23,3.56-2.12,1.94-3.9,1.21c-5.74-2.34-11.24-.28-16.73,1.23-.92.26-2.43,1.37-2.52,1.24-3.26-4.41-8.18,0-11.78-2.27-.72-.46-1.59-.72-2.23.09-.5.63-.06,1.23.32,1.78a7.65,7.65,0,0,1-.77,9.65c-1.81,1.71-5.59,3.75-9.28,1.2-1.56-1.07-4.63-.46-5.29,1.46-1.84,5.34-6.84,6.67-10.72,9.42-1.94,1.38-3.87,2.65-3.86,5.38,0,2.57-1.54,4-3.79,3.37-4.7-1.34-9.52.48-14.13-.93-3.09-.94-5.2-3.65-8.7-4.21s-4.91.14-4.06,3.62c1,3.94-2.75,4.54-3.68,3.28-2-2.62-4.75-1.25-6.65-2.7-.76-.59-1.43-.78-2.16,0a1.57,1.57,0,0,0,0,2.24c1.33,1.69,1.63,3.4.05,6.26-1.47-7.13-5-10.22-11.67-8.81-1.46.31-2.2-1.3-3.17-2.16-2.23-2-4.33-4.19-7.53-4.45-1.83-.15-4.2.11-4.19-2.37a6,6,0,0,1,3.38-5.63c3.63-1.8,7.44-3.3,8.07-8.33.37-3-.2-4.24-3-5.76-4.28-2.36-9.43-4.16-10.89-9.86C6.28,194,5.16,192.4,8,191.4a2.34,2.34,0,0,0,1.26-3.32c-4.47-9.6-1.53-19,.66-28.48,1.13-4.89,0-10.08,1.83-14.95,1.65-4.49-.33-10,3.93-13.8-2.6-4.09.44-8.88-1.63-13A366.76,366.76,0,0,1,23,65.77Zm79.89,117.56c-.15,1.24.3,2.84-1.53,3.22a1.86,1.86,0,0,1-2.45-1.77c-.33-2.2-1.67-2.14-3.29-1.46-1,.41-1.83,0-2.81-.3-6.17-1.67-11.33-8.76-18.85-3.56-.9.63-1.7-.58-2.52-1.12a4.23,4.23,0,0,0-4.72-.11c-1.51,1-.11,2.4,0,3.62.44,3.63-.64,5.62-4.72,4.42-3.38-1-4.43.18-3.27,3.5A47.45,47.45,0,0,0,65,202.18c2,2.83,4.4,2.85,6,.52,1.33-1.91,6.54-3.91,1.33-7.28A2.79,2.79,0,0,1,71.1,192c.48-1.46,1.82-1.23,2.94-1.23,1.33,0,3-.37,3.92.27,5.32,3.7,12.88,2.21,17.4,7.65a1.68,1.68,0,0,0,2.63.26,9.64,9.64,0,0,0,1.42-1.87c-5.17-4.49-1.4-4.88,2.39-5.56.71-.13,1.38-1.44,1.75-2.34,1.81-4.46,5.1-4.21,8.54-2.53,2.94,1.43,3.2.76,3.22-2.3,0-3.67-3.15-5.74-3.49-9.06-.29-2.8-1.32-3.26-3.28-1-1.19,1.35-2.07,3.73-4.2.32-1.38-2.21-3.26.38-4.51,1.35-2,1.52-.42,2.59,1,3.27C102.66,180.06,103,181.52,102.84,183.33Z"/><path class="cls-2" d="M216.72,213.66l-.06-7.85c5.31-.18,9.18-3.9,7.44-7.9-2.44-5.66,1.89-8.07,4.83-10.12a26.58,26.58,0,0,0,10.9-16,10.28,10.28,0,0,0-.67-8c-1.21-2.3.13-6,2.17-7.09,2.25-1.17,5.35-2.91,8.35-.94l.17,1.71c.11,1.79-.86,3.75.84,5.29-.2,3.17,2.75,5.75,1.7,9.09-2.48,1.52-2.41,2.84.32,3.94,1.15,15.54,2.9,31,3.38,46.64.3,9.73,1.88,19.45,1.75,29.25-.17,1.36-.72,2.76.45,4,1.65,5.65,1.22,11.49,1.44,17.26.56,15.14.95,30.29,1.39,45.44.1,3.48.12,7,.17,10.45-3.8-2-6.09-5.68-9.14-8.51-1.3-1.2-2-1.62-3,0-2.51,4.07-1.11,7.44,3.31,9.58,2.42,1.17,5.41-.22,7.4,2.08l-4,3.15c0-.83-.1-1.95-.95-2.12-10.38-2.13-16.54-10.57-24.53-16.26-.8-.58-1.42-1.55-2.29-1.87-5.51-2-10-5-11.89-11a3.33,3.33,0,0,0-2.41-1.57c-5.38-.76-5.47-4.75-4.87-8.54,1.52-9.64,1-19.48,3-29.06,4.75-.32,9-1.16,9.1-7.36,0-.63.91-1.26,1.43-1.87,4-4.74,2.08-11,4.21-16.26.11-.28-.35-.91-.68-1.25-6.24-6.29-5.17-13.52-2.64-20.9.39-1.16,2-2.08.56-3.47-1.1-1.07-2.4-.83-3.74-.48C219,213.34,217.86,213.46,216.72,213.66Z"/><path class="cls-1" d="M28,18.8q1.13-8.1,2.24-16.18C30.64-.23,32.8,0,34.8,0c10,0,20,.36,29.92.76,14.13.56,28.31-.09,42.45.41,21,.74,42,1.37,62.88.45,19.66-.86,39.23.54,58.83.62-.7,1.87-1.39,3.73-2.09,5.59-.31-2.82-1.62-3-4.12-2.09-3.12,1.15-4.16,4.18-6.43,6-.79.65-1.68,1.29-2.66.58s-.25-1.5.25-2.11c1.34-1.64.9-3-.46-4.37s-2.77-.55-4.05.15a30.22,30.22,0,0,0-3.72,2.45c-1.71,1.3-3.1,2.17-3.89-.9-.71-2.77-3.82-2-5.65-3.3-1.27-.87-2,1.17-2.45,2.39-.29.72-.92.63-1.63.69-5.79.48-7.95,2.24-9.47,7.4a3,3,0,0,1-.95,1.09c-2.55,2.31-1.22,2.86,1.3,2.93,1.95,0,4.31-.4,4.77,2.35.39,2.39-1,3.73-3,5.1s-3.71,1.77-6,1c-2.09-.69-4.24-1.07-3.42,2.45.62,2.68-1.67,2-2.83,2.24-1.83.33-3.48,2.78-5.66.32-4-4.55-6.82-4.91-11-.71-2.94,2.93-4.76,1.4-5.3-1.1-1.22-5.62-3.51-3.16-6-1.31-5.3,3.92-8.59,4-14.07-.25a3.23,3.23,0,0,0-4.47,0c-1.51,1.19-2.71,2.85-1.46,4.73,3,4.55-.63,6.12-3.41,8-1.68,1.16-2.71,1.09-3.36-1.45-.8-3.11.31-6.52-1.74-9.39-.56-.78.38-2.66-1.48-2.52a2.52,2.52,0,0,0-2,2.58c.29,5.07-2.68,9.76-1.61,14.88,0,.25,0,.5,0,.75l-15,.45-5.9-.33c-.35-1.95,2.5-1.43,2.5-3.71C89,45,87.5,41.5,85.07,40.93c-5.55-1.28-1.47-4.16-1.39-6.38,0-.47-.23-.95-.26-1.43-.29-5.09-3.65-9.13-4.71-14-.6-2.71-3.57-3.15-5.35-4.69-1.5-1.3-1.29,1.62-2.2,2.38-1.22,1-2,.5-3-.27A15.83,15.83,0,0,0,64,13.94c-1.24-.41-2.72-3.55-3.77-.75-.63,1.68-5.82,3.36-.18,6-2.78.51-4.62,1.68-6.92.87s-3.4.49-3.23,2.84c.17,2.13.34,4.32,2.25,5.74.78.58,2.19,1.1.57,1.91-2.06,1-.61,1.7-.39,2.91.76,4,2.33,7.8,3.47,11.7-.28.14-.54.28-.8.44h-6.9l-4.15-.45c-.32-1,.47-2.75-1.07-2.75s-.74,1.78-1.06,2.75l-2.92.11c.39-2.61-.54-4.16-3.1-5.31-2.14-1-6.87-1.3-3.1-5.78.16-.19-.13-1.06-.45-1.33-3.49-3-2.38-6.52-1.37-10.06,1.82-.18,3-1.68,2.45-2.93C32.27,17.73,29.81,19.15,28,18.8Z"/><path class="cls-2" d="M249.68,155.7c-3-2-6.1-.23-8.35.94-2,1.05-3.38,4.79-2.17,7.09a10.28,10.28,0,0,1,.67,8,26.58,26.58,0,0,1-10.9,16c-2.94,2.05-7.27,4.46-4.83,10.12,1.74,4-2.13,7.72-7.44,7.9-1.7-2.07-1-4.54-.65-6.69,3.37-22.77,4.07-45.8,6.77-68.63,2.42-20.51,4.56-41.05,7-61.55.71-6.07,2-12.08,3-18.12.55-3.13-4.06-1-3.86-3.77,1.77-.83,1.81-2.46,2.1-4.1.87-5,.73-10.07.89-15.11,1.68-1.68,1.19-4,1.76-6,1.23-4.33.41-9.15,3.11-13.13,1,5-.11,9.87-.86,14.72-1.86,12,.38,23.66,2.08,35.42,2.12,14.6,5.13,29.05,6.09,43.85.7,10.87,3,21.62,4.25,32.46C249.08,142,249.24,148.86,249.68,155.7Z"/><path class="cls-1" d="M231.76,347.68c-2.41-1.28-4.83,0-7.24,0-2,0-2.29.59-2.1,2.7.31,3.39.46,7.42-5.18,6.39a1.83,1.83,0,0,0-2.41,1.8c-.27,3.76-5.26,5.12-4.71,9.52.11,1-2.23,3.2-3.37,3.15-4.09-.18-2.8,2.49-2.9,4.51l0,0c-1.11,0-1.94.33-2,1.6l-1,.43c-1.76-2.08-4.44-1.35-6.5-1.55-5.12-.49-10.22-3.08-15.47-.69l-5.09-.9c-.85-1.85-2.53-1.72-4.2-2-8.4-1.4-16.76-3-25.17-5,4.85-.3,9-6,14.38-1.47,3.79-3.72,6.17.89,9.24,1.51,8.05,1.63,16.12,3.28,24.42,2.14,1.08-.14,1.76.59,2.61,1.16,4.08,2.71,7,1.56,7.51-3.42a103,103,0,0,0,0-13.94c0-1.12-.86-2.33.06-3.3,4.8-5.09,3.6-11.57,4.18-17.64.12-1.32-.26-2.83.27-3.94.89-1.85-.18-5,2.51-5.48,2.14-.39,3.13,2,4.32,3.59.49.63,1.19,1.61,1.76,1.59,4.93-.21,9,3.63,14.87,1.54,2.89-1,9.44-.43,12.94,3.53.88,1,2.62,2.09,1.82,3.78-1,2.15-2.38.82-3.66.06-.33-.2-1.31.05-1.31.06.18,4.88-4.65,4.22-7,6.3a4.5,4.5,0,0,0-1.54,4Z"/><path class="cls-2" d="M228.87,46.41c-.2,2.78,4.41.64,3.86,3.78-5.17,3.71-11.23,3.53-17.15,3.88-11.82.7-23.63,1.64-35.46,1.93-7.94.2-16-1.43-23.82-.68-13.65,1.3-27-2-40.6-1.62-6.14.15-12.93-1.62-19-1.22-19,1.26-37.49-3.85-56.35-3.41-2.49.06-5,.09-7.48.13-2.39-.11-4.81-.46-7,.92.17-1.35.34-2.71.5-4.06,4.44,0,8.88.3,13.3.08,2.81-.14,5.92,1.23,8.43-1.18h1.64c1.75,3.18,3.5,3.2,5.26,0a7.67,7.67,0,0,1,.8-.43l2.95.45c.28,2.42,2.12,2.14,3.77,2.17,3.66.06,7.42-.41,11,.28,6.47,1.27,12.94.44,19.39.74,1.37.06,2.76,0,2.91-1.85l15-.45c1.26.86,2.58,1.39,4.1.72l17,.58c5,1.6,10.18-.05,15.28.83,4.83.84,9.86-.58,14.73.69,3.25,2.88,7.5,2.23,11.13,2.33,15.62.43,31.26.2,46.9.19,1.82,0,3.79.14,4.3-2.34,1.75-.27,1.15-1.86,1.61-2.86Z"/><path class="cls-1" d="M30.86,22.78c-1,3.54-2.12,7.09,1.37,10.06.32.27.61,1.14.45,1.33-3.77,4.48,1,4.81,3.1,5.78,2.56,1.15,3.49,2.7,3.1,5.31l-7.67.18-.82-1.1-.45.76-4-.31c-4.16-2.67-1.54-5.9-.74-9l4.56-1.67-3.62-3.29c-.44-1.81.5-3.39.88-5.05,2.2.17,1.56-3.31,3.86-3Z"/><path class="cls-2" d="M259.84,331.88c-2-2.3-5-.91-7.4-2.08-4.42-2.14-5.82-5.51-3.31-9.58,1-1.62,1.72-1.2,3,0,3,2.83,5.34,6.5,9.14,8.51C261.76,330.22,261.71,331.47,259.84,331.88Z"/><path class="cls-1" d="M236.73,8.73c-2.7,4-1.88,8.8-3.11,13.13-.57,2-.08,4.3-1.76,6-1.24-.82-.89-1.87-.64-3.08,1.07-5.33,2.34-10.64,2.55-16.11.09-2.2,0-4.12-3-3.83,0-.73.07-1.46.11-2.2C237.75,2.06,238,2.36,236.73,8.73Z"/><path class="cls-3" d="M178.87,375.48c5.25-2.39,10.35.2,15.47.69,2.06.2,4.74-.53,6.5,1.55-1.91,1.68-4.07.74-6.08.43C189.45,377.35,184.17,376.38,178.87,375.48Z"/><path class="cls-1" d="M.78,248.64C2.12,255,3,261.29.62,267.58A83.89,83.89,0,0,1,.78,248.64Z"/><path class="cls-1" d="M230.85,2.62c0,.74-.07,1.47-.11,2.2-2.43,3.07-1.31,7.52-4.3,10.51a43.06,43.06,0,0,0,.35-7.5c.7-1.86,1.39-3.72,2.09-5.59Z"/><path class="cls-2" d="M31.21,45.44l7.67-.18,2.92-.11h2.13l4.15.45c-2.51,2.41-5.62,1-8.43,1.17-4.42.22-8.86,0-13.3-.07l-.42-1.91,4,.31Z"/><path class="cls-1" d="M.6,283.77c2.18,2.54,1.58,5.2.33,7.89A13.53,13.53,0,0,1,.6,283.77Z"/><path class="cls-1" d="M.4,273.75c2.44,2.59,2.32,5.21.08,7.85A18.39,18.39,0,0,1,.4,273.75Z"/><path class="cls-1" d="M28,18.8c1.81.35,4.27-1.07,5.31,1.05.6,1.25-.63,2.75-2.45,2.93h0c0-1.92-1.67-2.24-2.89-3Z"/><path class="cls-1" d="M26.13,30.84l3.62,3.29L25.19,35.8C24.69,34,25.46,32.42,26.13,30.84Z"/><path class="cls-1" d="M28,19.79c1.22.75,2.88,1.07,2.89,3-2.3-.3-1.66,3.18-3.86,3C26.67,23.68,27.36,21.74,28,19.79Z"/><path class="cls-1" d="M.83,241.67c1.57,1.71,1.56,3.4,0,5.09A5.43,5.43,0,0,1,.83,241.67Z"/><path class="cls-2" d="M252.71,175.73c-2.73-1.1-2.8-2.42-.32-3.94C252.5,173.1,252.6,174.42,252.71,175.73Z"/><path class="cls-2" d="M250.69,162.7c-1.7-1.54-.73-3.5-.84-5.29C252.24,158.84,250.51,160.92,250.69,162.7Z"/><path class="cls-3" d="M201.84,377.29c.09-1.27.92-1.61,2-1.6Z"/><path class="cls-1" d="M67.28,355.65c-10.23-2.4-20.78-2.92-31.06-5.08l-23.7-5a5.79,5.79,0,0,1-1.87-.61c-1.86-1.22-4.9-1.74-4.56-4.58C6.39,338,8.9,336.6,11,336c1.92-.6,3.77-.78,5-2.63.45-.67,1.9-.87,2.17-.12,2.56,7.11,9.41,6.1,14.73,8a80.25,80.25,0,0,0,15,3.66c8.21,1.14,14.6,7,22.86,7.05,1.26,0,4,.22,3.71,2.39s-2.69,1.15-4.2,1.36A22.91,22.91,0,0,1,67.28,355.65Z"/><path class="cls-2" d="M216.72,213.66c1.14-.2,2.29-.32,3.4-.62,1.34-.35,2.64-.59,3.74.48,1.41,1.39-.17,2.31-.56,3.47-2.53,7.38-3.6,14.61,2.64,20.9.33.34.79,1,.68,1.25-2.13,5.24-.2,11.52-4.21,16.26-.52.61-1.43,1.24-1.43,1.87-.07,6.2-4.35,7-9.1,7.36,1.22-16.23,1.48-32.54,4-48.66A12.12,12.12,0,0,1,216.72,213.66Z"/><path class="cls-1" d="M40,322c-.27,1-.68,2.41-1,3.84a2,2,0,0,1-2.56,1.69c-1.47-.3-1.19-1.33-.82-2.3.46-1.22-.2-2.24-.48-3.35-.58-2.28.33-4.52,2.47-4.63S39.64,319.71,40,322Z"/><path class="cls-1" d="M41.8,312.14c0,1.55-.26,2.9-1.52,3-1.87.19-1.52-1.79-2-2.84a1.55,1.55,0,0,1,1.61-2.27C41.35,310.08,41.61,311.32,41.8,312.14Z"/><path class="cls-1" d="M34.85,332.9c1.58-1.55,2.63-2.66,4.28-1.72a1.31,1.31,0,0,1,.1,1.26C38.19,333.91,36.86,333.79,34.85,332.9Z"/><path class="cls-4" d="M231.8,347.64l.41.25-.45-.21Z"/><path class="cls-1" d="M59.54,283.05c2.32,1.38,4.42-.68,6.72-.42,1.81.2,3.41.7,4,2.35.75,2.08-1.23,3.14-2.38,4.41-.26.3-.94.33-1.42.31-3.07-.14-2.91,5.89-6.09,3.8-1.5-1-.51-5-2.83-6.88a2.38,2.38,0,0,1-.24-3.19C57.84,282.62,58.73,282.79,59.54,283.05Z"/><path class="cls-1" d="M55.1,305.67c-2.28.2-3.75-.41-2.11-3.29a4,4,0,0,0,.36-3.78c-.69-1.61-1-3.59.89-4.34,2.19-.85,3.29,1.35,4.11,2.78C60.08,300.08,58,305.65,55.1,305.67Z"/><path class="cls-3" d="M189.64,102.92a3.4,3.4,0,0,1,2.66,2.3c.38,1-.46,1.52-1.35,1.33-1.25-.26-2.64-.59-2.93-2.13C187.84,103.48,188.45,102.94,189.64,102.92Z"/><path class="cls-1" d="M57.44,315.56a1.3,1.3,0,0,1-1.32-1.16c-.16-1,.48-1.52,1.38-1.62s2.08.1,2.11,1.4C59.64,315.13,58.91,315.57,57.44,315.56Z"/><path class="cls-1" d="M102.84,183.33c.17-1.81-.18-3.27-2-4.15-1.41-.68-2.94-1.75-1-3.27,1.25-1,3.13-3.56,4.51-1.35,2.13,3.41,3,1,4.2-.32,2-2.24,3-1.78,3.28,1,.34,3.32,3.52,5.39,3.49,9.06,0,3.06-.28,3.73-3.22,2.3-3.44-1.68-6.73-1.93-8.54,2.53-.37.9-1,2.21-1.75,2.34-3.79.68-7.56,1.07-2.39,5.56A9.64,9.64,0,0,1,98,198.92a1.68,1.68,0,0,1-2.63-.26c-4.52-5.44-12.08-3.95-17.4-7.65-.92-.64-2.59-.28-3.92-.27-1.12,0-2.46-.23-2.94,1.23a2.79,2.79,0,0,0,1.27,3.45c5.21,3.37,0,5.37-1.33,7.28-1.62,2.33-4,2.31-6-.52a47.45,47.45,0,0,1-6.3-12.41c-1.16-3.32-.11-4.49,3.27-3.5,4.08,1.2,5.16-.79,4.72-4.42-.15-1.22-1.55-2.63,0-3.62a4.23,4.23,0,0,1,4.72.11c.82.54,1.62,1.75,2.52,1.12,7.52-5.2,12.68,1.89,18.85,3.56,1,.26,1.82.71,2.81.3,1.62-.68,3-.74,3.29,1.46a1.86,1.86,0,0,0,2.45,1.77C103.14,186.17,102.69,184.57,102.84,183.33Z"/><path class="cls-1" d="M226.79,7.83a43.06,43.06,0,0,1-.35,7.5c3-3,1.87-7.44,4.3-10.51,3-.29,3.12,1.63,3,3.83-.21,5.47-1.48,10.78-2.55,16.11-.25,1.21-.6,2.26.64,3.08-.16,5,0,10.09-.89,15.11-.29,1.64-.33,3.27-2.1,4.1l-3.11-.4c.25-2.64-2.93-4.25-2.09-7.06,1.08-7.27,3.19-14.42,2.19-22q-2.07,11.07-4.12,22.16c-1.75.91-.14,3.21-2.21,4.61-.56-3.7-2.79-1.93-4.64-1.62-4.17.7-8.31,1.48-12.39-.54-.79-.39-2.37-.54-2.81-.07-2.75,2.91-5.15.93-7.63-.27-4.57-2.22-8.27-7.15-14.44-4.51-.47.2-1.72-.92-2.32-1.66-1.64-2-3.17-1.88-5-.24-2.28,2-4.51,1.94-7.64,1.06-3.8-1-8.78-3.26-11.72,2.32-.5.93-1.7.94-2.72.82-4.55-.56-9.48.33-13-3.9a2.22,2.22,0,0,0-3.82.22c-1.27,2,.83,2.13,1.71,3.16,1.62,1.89,6,.25,5.57,4.42s-4.42,2.48-6.55,3.86a2,2,0,0,0-.33.37l-17-.58c-.75-2.12-2.6-1.25-4-1.48-1.07-5.12,1.9-9.81,1.61-14.88a2.52,2.52,0,0,1,2-2.58c1.86-.14.92,1.74,1.48,2.52,2,2.87.94,6.28,1.74,9.39.65,2.54,1.68,2.61,3.36,1.45,2.78-1.91,6.46-3.48,3.41-8-1.25-1.88,0-3.54,1.46-4.73a3.23,3.23,0,0,1,4.47,0c5.48,4.2,8.77,4.17,14.07.25,2.49-1.85,4.78-4.31,6,1.31.54,2.5,2.36,4,5.3,1.1,4.23-4.2,7-3.84,11,.71,2.18,2.46,3.83,0,5.66-.32,1.16-.2,3.45.44,2.83-2.24-.82-3.52,1.33-3.14,3.42-2.45,2.24.74,3.9.34,6-1s3.4-2.71,3-5.1c-.46-2.75-2.82-2.3-4.77-2.35-2.52-.07-3.85-.62-1.3-2.93a3,3,0,0,0,.95-1.09C184,9.6,186.19,7.84,192,7.36c.71-.06,1.34,0,1.63-.69.49-1.22,1.18-3.26,2.45-2.39,1.83,1.26,4.94.53,5.65,3.3.79,3.07,2.18,2.2,3.89.9A30.22,30.22,0,0,1,209.32,6c1.28-.7,2.59-1.62,4.05-.15s1.8,2.73.46,4.37c-.5.61-1.2,1.42-.25,2.11s1.87.07,2.66-.58c2.27-1.86,3.31-4.89,6.43-6C225.17,4.81,226.48,5,226.79,7.83Z"/><path class="cls-1" d="M58.73,45.62l-2.95-.45c-1.14-3.91-2.71-7.67-3.47-11.71-.22-1.21-1.67-1.89.39-2.91,1.62-.81.21-1.33-.57-1.91-1.91-1.42-2.08-3.61-2.25-5.74-.17-2.35.84-3.67,3.23-2.84s4.14-.36,6.92-.87c-5.64-2.64-.45-4.32.18-6,1-2.8,2.53.34,3.77.75a15.83,15.83,0,0,1,4.15,2.64c1,.77,1.81,1.29,3,.27.91-.76.7-3.68,2.2-2.38,1.78,1.54,4.75,2,5.35,4.69,1.06,4.83,4.42,8.87,4.71,14,0,.48.28,1,.26,1.43-.08,2.22-4.16,5.1,1.39,6.38,2.43.57,4,4.07,7.29,2,0,2.28-2.85,1.76-2.5,3.71l-19-.83a3,3,0,0,0-4-.14Z"/><path class="cls-2" d="M70.85,45.79l19,.83,5.9.33c-.15,1.9-1.54,1.92-2.91,1.85-6.45-.3-12.92.54-19.39-.73-3.54-.69-7.3-.22-11-.29-1.65,0-3.49.25-3.77-2.16l8.1,0C68.12,47.1,69.46,47.06,70.85,45.79Z"/><path class="cls-2" d="M55,45.6c-1.76,3.19-3.51,3.17-5.26,0Z"/><path class="cls-1" d="M43.93,45.15H41.8c.32-1-.47-2.76,1.06-2.75S43.61,44.18,43.93,45.15Z"/><path class="cls-1" d="M110.81,45.75c1.45.23,3.3-.64,4,1.48a4,4,0,0,1-4.1-.72C110.77,46.25,110.79,46,110.81,45.75Z"/><path class="cls-1" d="M131.81,47.81a2,2,0,0,1,.33-.37c2.13-1.38,6.13.4,6.55-3.86s-3.95-2.53-5.57-4.42c-.88-1-3-1.19-1.71-3.16a2.22,2.22,0,0,1,3.82-.22c3.51,4.23,8.44,3.34,13,3.9,1,.12,2.22.11,2.72-.82,2.94-5.58,7.92-3.37,11.72-2.32,3.13.88,5.36,1,7.64-1.06,1.83-1.64,3.36-1.78,5,.24.6.74,1.85,1.86,2.32,1.66,6.17-2.64,9.87,2.29,14.44,4.51,2.48,1.2,4.88,3.18,7.63.27.44-.47,2-.32,2.81.07,4.08,2,8.22,1.24,12.39.54,1.85-.31,4.08-2.08,4.64,1.62,2.07-1.4.46-3.7,2.21-4.61l1.93-.19c-.84,2.81,2.34,4.42,2.09,7.06-.46,1,.14,2.59-1.61,2.86-.54-.32-1.2-1-1.6-.91C213.89,51.28,205,50,196.18,50.27c-.58-1.34-1.18-1.39-1.78,0-10.83-1.48-21.72-.49-32.58-.93-4.87-1.28-9.9.14-14.73-.69C142,47.76,136.82,49.41,131.81,47.81Z"/><path class="cls-2" d="M161.82,49.33c10.86.44,21.75-.55,32.58.94h1.78c8.81-.23,17.71,1,26.37-1.67.4-.12,1.06.59,1.6.91-.51,2.47-2.48,2.34-4.3,2.34-15.64,0-31.28.24-46.9-.19C169.32,51.56,165.07,52.2,161.82,49.33Z"/><path class="cls-5" d="M31.21,45.44l-1.27-.34.45-.76Z"/><path class="cls-1" d="M223.67,39.59l-1.93.19q2.06-11.08,4.12-22.16C226.86,25.17,224.75,32.32,223.67,39.59Z"/><path class="cls-1" d="M70.85,45.79c-1.39,1.27-2.73,1.31-4-.14A3,3,0,0,1,70.85,45.79Z"/><path class="cls-2" d="M196.18,50.27H194.4C195,48.88,195.6,48.93,196.18,50.27Z"/><path class="cls-2" d="M185.9,236.17c-.3-7-1-13.91-1.43-20.87-.24-3.79.09-7.21,3.46-10.34,4.44-4.13,6.11-9.6,6.19-15.39q.24-16.63.41-33.29c0-2.24-.2-4.48-.31-6.71l-1.3.1c-2.16,10.79-.78,21.9-3.43,32.64l-2.28-.08,1.17-16.8c1-14.19,1-14.19-1.44-16.23-2.12,11.21-.83,22.35-3.45,33.13l-2.33-.06.76-10.89c.28-3.92.63-7.85.8-11.77.16-3.38.12-6.76.17-10.14l-1.95.14c-2.21,10.79-.77,21.92-3.46,32.67l-2.61-.05,2.28-32.56-1.45,0c-.26.39-.7.76-.75,1.16-1.73,13.71-3.79,27.41-4.87,41.13a19.24,19.24,0,0,0,3.57,12.08,13.23,13.23,0,0,1,2.25,12.19c-4.49,16.47-5.88,33.11-6.86,49.8a6.66,6.66,0,0,1-1.84,4.32c-3.21,2.64-6.76,4.86-10.79,7.68-.06-1.89-.18-3-.12-4,.88-17.32,2.08-34.66,2.59-52,.45-15.49,0-30.95.29-46.44a11.11,11.11,0,0,1,2.94-6.85c11-11.2,14.72-29.36,8.11-42.52-2.3-4.59-5.58-8.25-11.42-8.21-5.59,0-9.27,3.5-12.21,7.92-8.46,12.74-7.73,31.75,1.9,42.42,2.31,2.55,2.75,5,2.12,8.34-1.6,8.43-3.46,16.87-4.32,25.34-2.76,27.25-5.09,54.52-7.69,81.78-.12,1.22-1.07,3.14-2,3.49-4.18,1.56-8.52,2.65-12.86,3.93a10.5,10.5,0,0,1-.46-2.11c1-14.05,2.36-28.1,2.89-42.13.17-4.65-1.37-9.38-2.86-13.79-1.22-3.61-1-6.4,1.71-9.46,1.77-2,3.93-4.35,4.24-6.66,2.61-19.54,5.57-39.11,7-58.68a84.58,84.58,0,0,0-6.76-40.21c-1.59-3.62-3.73-7-5.95-11a12.49,12.49,0,0,0-.93,2c-3.64,43.76-7.36,87.52-10.86,131.29-1.28,16-2.2,32-3,48-.23,4.85-2.2,5.59-6.36,4.43.08-3.65.16-7.15.23-10.59-46.35-1.36-74-36.63-74.47-72.93A80.26,80.26,0,0,1,46.17,157c17.57-22,40.52-32.83,67.66-33.85l1.22-17.42c-47.8-1-97.66,37.1-104.17,91.08C4,254.21,45.74,300.55,103.56,299.63c53.8-.86,96.57-43.45,102.13-88.47-4.06,15-9.86,28.21-19.95,40.65C185.82,245.87,186.1,241,185.9,236.17Z"/><path class="cls-2" d="M46.24,161.68c-18.51,26.93-20.78,54.67-5.8,81.5,13.1,23.46,34.83,34.46,62.72,35.78l10.65-152.23C93.58,125.3,63.81,136.12,46.24,161.68Z"/></g></g></svg>