<svg xmlns="http://www.w3.org/2000/svg" viewBox="0 0 182 268.13"><defs><style>.cls-1{fill:#fefefe;}.cls-2{fill:#e39533;}.cls-3{fill:none;stroke:#fefefe;stroke-miterlimit:10;stroke-width:10px;}</style></defs><g id="Calque_2" data-name="Calque 2"><g id="Calque_1-2" data-name="Calque 1"><path class="cls-1" d="M.06,268.09Q.06,175.66,0,83.22c0-2.41.45-3.09,3-3.09q87.93.14,175.87,0c2.41,0,3.08.44,3.08,3q-.14,91,0,181.93c0,3.31-1.29,3.05-3.56,3.05Q89.26,268.07.06,268.09Zm39.73-67.23c0-13.53-.56-27.09.13-40.59C41,139.14,41.09,118,41.78,96.86c.09-2.67-.48-3.82-3.46-3.75-8.44.19-16.89.15-25.33,0-2.63,0-3.81.48-3.8,3.5q.13,57.63,0,115.28c0,2.47.57,3.51,3.29,3.5q35.27-.14,70.52,0c2.65,0,3.35-.89,3.35-3.44q-.11-57.65,0-115.28c0-2.93-1-3.67-3.73-3.57-4.79.19-9.6-.09-14.4.1s-11.33-2.19-13.71,1-.85,9.5-1.07,14.44c-.15,3.39,1.27,5.87,4.45,7,2.38.81,2.82,2.27,2.77,4.51-.21,11.09-.16,22.21-2,33.18C55.74,170.36,50,186.43,39.79,200.86ZM96.44,205q0,23.85,0,47.71c0,2-.81,4.42,2.87,4.36,9.77-.16,19.54-.06,29.31-.06,1.16,0,2.55.08,2.63-1.53.42-9,2.9-18.29-4.06-26.13a27.3,27.3,0,0,1-6.61-14.73c-1.9-13.9.41-27.68,1.28-41.51.07-1.1.1-2.43,1.82-2.39,2.23.06,1.54,1.79,1.55,2.93,0,9.94,0,19.88.07,29.82,0,1.47-1.25,4.14,2,4,3-.11,1.84-2.68,1.87-4.19.22-9.78.25-19.55.4-29.33,0-1.19-.52-3.06,1.41-3.15s1.33,1.84,1.48,3a29.58,29.58,0,0,1,.06,3c.2,9.28.39,18.55.62,27.83,0,1.24-.35,2.76,1.73,2.9s2.32-1.26,2.3-2.87c0-1.33,0-2.65,0-4,.1-8.94.17-17.89.32-26.84,0-1.18-.53-3,1.53-3,1.75,0,1.33,1.59,1.35,2.64.2,9.76.4,19.51.46,29.27,0,2.07-.66,4.6,2.23,4.71s1.8-2.66,1.82-4.19c.11-9.77,0-19.55.1-29.32,0-1.16-.68-2.89,1.34-3.16s1.82,1.41,1.93,2.66c1.07,11.87,2.35,23.75,1.84,35.69-.26,6-.8,12.35-4.94,16.87-7.43,8.11-7.52,17.54-6.8,27.46.21,2.8,1.19,3.66,3.93,3.62,8.77-.14,17.56-.22,26.33,0,3.49.09,4.43-.94,4.42-4.42q-.21-47.22,0-94.44c0-4-1.39-4.5-4.84-4.48-22.36.14-44.71.19-67.07,0-4.13,0-4.83,1.35-4.78,5.05C96.54,174.19,96.44,189.6,96.44,205Zm38.3-60.93v-.25c11.35,0,22.7-.09,34,0,2.94,0,4.31-.32,4.25-3.88-.23-14.39-.2-28.79,0-43.19,0-3.19-.94-3.76-3.89-3.75q-34.48.18-69,0c-3.08,0-3.84.78-3.81,3.83.18,14.23.32,28.47-.06,42.69-.12,4.25,1.81,4.52,4.83,4.52ZM48.25,225.41c-11.74,0-23.49.05-35.23,0-2.53,0-3.95.31-3.87,3.43.2,8.27.15,16.54,0,24.81-.05,2.62.85,3.41,3.42,3.4q35.22-.11,70.45,0c2.67,0,3.39-.95,3.35-3.47-.12-8.1-.18-16.22,0-24.32.08-3.1-.92-3.93-3.94-3.89C71.07,225.5,59.66,225.41,48.25,225.41Z"/><path class="cls-2" d="M39.79,200.86c10.25-14.43,16-30.5,18.87-47.6,1.87-11,1.82-22.09,2-33.18.05-2.24-.39-3.7-2.77-4.51-3.18-1.09-4.6-3.57-4.45-7,.22-4.94-1.37-11.21,1.07-14.44s9-.77,13.71-1,9.61.09,14.4-.1c2.73-.1,3.74.64,3.73,3.57q-.13,57.65,0,115.28c0,2.55-.7,3.45-3.35,3.44q-35.25-.14-70.52,0c-2.72,0-3.29-1-3.29-3.5q.09-57.65,0-115.28c0-3,1.17-3.54,3.8-3.5,8.44.13,16.89.17,25.33,0,3-.07,3.55,1.08,3.46,3.75-.69,21.13-.78,42.28-1.86,63.41C39.23,173.77,39.79,187.33,39.79,200.86Z"/><path class="cls-2" d="M96.44,205c0-15.41.1-30.82-.08-46.23,0-3.7.65-5.09,4.78-5.05,22.36.23,44.71.18,67.07,0,3.45,0,4.86.48,4.84,4.48q-.27,47.22,0,94.44c0,3.48-.93,4.51-4.42,4.42-8.77-.25-17.56-.17-26.33,0-2.74,0-3.72-.82-3.93-3.62-.72-9.92-.63-19.35,6.8-27.46,4.14-4.52,4.68-10.89,4.94-16.87.51-11.94-.77-23.82-1.84-35.69-.11-1.25.18-3-1.93-2.66s-1.34,2-1.34,3.16c-.06,9.77,0,19.55-.1,29.32,0,1.53,1.15,4.31-1.82,4.19s-2.21-2.64-2.23-4.71c-.06-9.76-.26-19.51-.46-29.27,0-1.05.4-2.66-1.35-2.64-2.06,0-1.51,1.84-1.53,3-.15,9-.22,17.9-.32,26.84,0,1.33,0,2.65,0,4,0,1.61-.08,3-2.3,2.87s-1.7-1.66-1.73-2.9c-.23-9.28-.42-18.55-.62-27.83a29.58,29.58,0,0,0-.06-3c-.15-1.16.59-3.09-1.48-3s-1.39,2-1.41,3.15c-.15,9.78-.18,19.55-.4,29.33,0,1.51,1.16,4.08-1.87,4.19-3.2.12-1.93-2.55-2-4-.11-9.94,0-19.88-.07-29.82,0-1.14.68-2.87-1.55-2.93-1.72,0-1.75,1.29-1.82,2.39-.87,13.83-3.18,27.61-1.28,41.51a27.3,27.3,0,0,0,6.61,14.73c7,7.84,4.48,17.15,4.06,26.13-.08,1.61-1.47,1.52-2.63,1.53-9.77,0-19.54-.1-29.31.06-3.68.06-2.86-2.37-2.87-4.36Q96.41,228.87,96.44,205Z"/><path class="cls-2" d="M134.74,144.08H101.13c-3,0-4.95-.27-4.83-4.52.38-14.22.24-28.46.06-42.69,0-3,.73-3.85,3.81-3.83q34.49.21,69,0c3,0,3.93.56,3.89,3.75-.19,14.4-.22,28.8,0,43.19.06,3.56-1.31,3.92-4.25,3.88-11.35-.14-22.7,0-34,0Z"/><path class="cls-2" d="M48.25,225.41c11.41,0,22.82.09,34.23-.07,3,0,4,.79,3.94,3.89-.21,8.1-.15,16.22,0,24.32,0,2.52-.68,3.48-3.35,3.47q-35.22-.13-70.45,0c-2.57,0-3.47-.78-3.42-3.4.13-8.27.18-16.54,0-24.81-.08-3.12,1.34-3.45,3.87-3.43C24.76,225.46,36.51,225.41,48.25,225.41Z"/><path class="cls-3" d="M59.92,82.56S48.62,5,88.14,5s35.31,77.6,35.31,77.6"/></g></g></svg>