<svg xmlns="http://www.w3.org/2000/svg" viewBox="0 0 264.82 387.24"><defs><style>.cls-1{fill:none;stroke:#eba348;stroke-linecap:round;stroke-miterlimit:10;stroke-width:16px;}.cls-2{fill:#eba348;}</style></defs><g id="Calque_2" data-name="Calque 2"><g id="Calque_1-2" data-name="Calque 1"><path class="cls-1" d="M64.82,145.42S81.85,8,126.67,8s72.62,46.69,69.93,167.37"/><path class="cls-2" d="M233.35,158.27H210s9.86,35-14.34,35-13.45-35-13.45-35H29S-3.31,356.38.28,372.51,116.81,384.17,159,384.17s104,6.52,105.77.57S241.42,164.54,233.35,158.27ZM128.77,377.57c-58.28,1-103.72-46.26-100.78-104.7,2.77-55,50.38-93.86,98.7-92.85v17.75c-27.32,1-49.72,12.07-65.89,34.52-11.45,15.89-16.11,33.87-14.53,53.31,3,37,33.43,72.92,80.3,74.28.17,3.51.34,7.08.51,10.8,4.28,1.18,6.22.42,6.11-4.52-.36-16.29-.57-32.6-.4-48.9.44-44.6,1.11-89.2,1.7-133.79a10.45,10.45,0,0,1,.8-2c2.52,4.13,4.92,7.53,6.78,11.21a90.62,90.62,0,0,1,9.66,41c0,19.94-1.62,39.88-2.88,59.8-.15,2.35-2.16,4.79-3.8,6.78-2.58,3.12-2.55,6-1.06,9.65,1.81,4.49,3.7,9.31,3.85,14,.46,14.3.09,28.63.06,42.94a11,11,0,0,0,.62,2.15c4.29-1.3,8.58-2.42,12.7-4,.94-.36,1.76-2.31,1.8-3.56.7-27.78,1.12-55.56,2-83.34.27-8.62,1.56-17.23,2.58-25.82a9.4,9.4,0,0,0-2.73-8.5c-10.47-10.87-12.55-30.24-4.91-43.22,2.65-4.5,6.12-8,11.76-8.08,5.89,0,9.46,3.69,12.11,8.36,7.59,13.41,5.18,31.92-5.19,43.34a10.64,10.64,0,0,0-2.48,7c.81,15.79,2.34,31.53,3,47.32.71,17.64.72,35.31,1.06,53,0,1.1.21,2.19.41,4.12,3.87-2.87,7.29-5.14,10.34-7.83a6.43,6.43,0,0,0,1.56-4.41c-.2-17,0-34,3.4-50.74a14.16,14.16,0,0,0-3.13-12.43,20.94,20.94,0,0,1-4.46-12.3c.13-14,1.24-28,2-41.92,0-.4.44-.78.68-1.18l1.46,0v33.18l2.64,0c1.95-11-.28-22.3,1.19-33.3l1.95-.14c.19,3.45.47,6.89.55,10.34.1,4,0,8,0,12V258l2.35.06c1.89-11-.2-22.33,1.15-33.77,2.6,2.09,2.6,2.09,2.6,16.54V257.9l2.31.09c1.92-11-.26-22.27,1.16-33.26l1.31-.11c.26,2.28.64,4.55.77,6.84q1,17,2,33.93c.32,5.89-1,11.46-5.17,15.68-3.17,3.19-3.27,6.68-2.76,10.53.95,7.09,2.12,14.16,2.91,21.27.55,4.92.61,9.89,1,15.94,9.3-12.68,14.22-26.16,17.26-41.43C223.15,333.25,183,376.67,128.77,377.57Zm-1.86-176.19V356.5C98.67,355.17,76,344,61.09,320.06c-17-27.33-16.68-55.6.1-83C77.12,211,106.4,199.92,126.91,201.38Z"/></g></g></svg>