<svg xmlns="http://www.w3.org/2000/svg" viewBox="0 0 364.98 521.35"><defs><style>.cls-1{fill:#37405d;}.cls-2{fill:#eba348;}.cls-3{fill:none;stroke:#eba348;stroke-linecap:round;stroke-miterlimit:10;stroke-width:19px;}</style></defs><g id="Calque_2" data-name="Calque 2"><g id="Calque_1-2" data-name="Calque 1"><path class="cls-1" d="M332.67,240.22c51.82,72.1,42.65,182-37.23,243.85C217.3,544.55,108,527.74,51.73,460.26l20.38-20.09c33.07,37,75.31,55.07,126,51.57,33.38-2.3,62.79-15.09,87.74-37.43,55.21-49.45,58.85-121.39,39.5-165.78-1.42,1.31-2.76,2.46-4,3.71q-29.11,29.07-58.23,58.14c-1.89,1.88-3,3.53-2.19,6.47,2.4,9,.76,17.54-4,25.36-12.86,21.05-30.35,36.05-55.37,40.21a78.94,78.94,0,0,1-20.32.25c-8.14-.78-12.39-6-13.08-14.37-2.09-25,6.67-45.74,25.23-62.15,6.37-5.64,13.85-10.23,21.35-14.36,6.81-3.74,14.52-3.3,21.81-.85,3,1,4.72.36,6.85-1.78q42.61-42.72,85.4-85.27C329.94,242.73,331.16,241.64,332.67,240.22Z"/><path class="cls-2" d="M313.39,215.44l-20.09,20c-33.59-37.38-75.92-55.34-126.51-51.81-34.23,2.38-64.31,15.75-89.6,39.05-52.94,48.79-57.72,119.58-37.89,165,1.33-1.11,2.61-2,3.7-3.1,17.43-17.37,34.78-34.81,52.27-52.12,2.63-2.6,3.44-4.91,2.43-8.7-3.2-12.07-.81-23.28,7.76-32.43,16.82-18,34-35.55,51.07-53.29a12.44,12.44,0,0,1,1.59-1.08l6.28,5.76c-1.38,1.5-2.45,2.72-3.57,3.88q-19.37,20.13-38.75,40.23c-2.82,2.91-4.78,5.75-1,9.27,3.64,3.38,6.53,1.72,9.38-1.26q19.45-20.39,39-40.7a41.49,41.49,0,0,0,2.68-3.58l6.93,6.44c-1.5,1.64-2.67,3-3.91,4.26q-19.16,20-38.33,39.94c-2.07,2.17-4.37,4.31-2,7.75,2.82,4.16,6.12,4.56,9.82.74,11.69-12,23.27-24.21,34.94-36.28,2.53-2.62,5.23-5.06,8.3-8l5.34,6.5c-.67.76-1.69,2-2.8,3.19q-19.5,20.36-39,40.69c-3.76,3.94-3.42,7.27.68,9.83,3.38,2.11,5.58.19,7.76-2.08Q178.7,304,197.54,284.36a52.27,52.27,0,0,0,4-5.55l7.22,6.61c-1.41,1.58-2.54,2.94-3.77,4.21-15.89,16.55-31.72,33.15-47.72,49.59-9.17,9.43-20.51,12.54-33.27,9.91-3.55-.74-5.83,0-8.33,2.55q-39.39,39.61-78.93,79.06c-1.28,1.28-2.09,3-3.83,4.24-31-45.45-40.83-94.57-26.37-146.72,19.63-70.83,66.7-115.37,138.72-129.7C211.11,145.46,267.2,166.75,313.39,215.44Z"/><path class="cls-3" d="M74.15,204.55c-45.47-101.05,151.58-372.63,195.16-19"/></g></g></svg>